# xmcd CD database file
#
# Track frame offsets:
#	150
#	18237
#	38707
#	51552
#	69945
#	88307
#	109957
#	128040
#	145115
#	158302
#	169090
#	182740
#
# Disc length: 2566 seconds
#
# Revision: 4
# Processed by: cddbd v1.5.2PL0 Copyright (c) Steve Scherf et al.
# Submitted via: CDex 1.70beta2
#
DISCID=9b0a040c
DTITLE=Kasey Chambers - The Captain
DYEAR=1999
DGENRE=Country
TTITLE0=Cry Like a Baby
TTITLE1=The Captain
TTITLE2=This Flower
TTITLE3=You Got the Car
TTITLE4=These Pines
TTITLE5=Don't Talk Back
TTITLE6=Southern Kind of Life
TTITLE7=Mr Baylis
TTITLE8=The Hard Way
TTITLE9=Last Hard Bible
TTITLE10=Don't Go
TTITLE11=We're All Gonna Die Someday
EXTD=1999 EMI Music Australia YEAR: 1999
EXTT0=
EXTT1=
EXTT2=
EXTT3=
EXTT4=
EXTT5=
EXTT6=
EXTT7=
EXTT8=
EXTT9=
EXTT10=
EXTT11=
PLAYORDER=
